<svg xmlns="http://www.w3.org/2000/svg" style="margin:auto" width="200px" height="200px" viewBox="0 0 100 100" preserveAspectRatio="xMidYMid" display="block"><defs><clipPath id="ldio-4whrb9dk3pt-cp" clipPathUnits="userSpaceOnUse"><path d="M0 50h100v50H0z"/></clipPath><pattern id="ldio-4whrb9dk3pt-pattern" patternUnits="userSpaceOnUse" x="0" y="0" width="100" height="100"><path fill="#94d137" d="M0 0h100v100H0z"/><circle cx="88" cy="0" r="2" fill="#b3e46e" transform="translate(0 94.05)"><animateTransform attributeName="transform" type="translate" values="0 106;0 -6" keyTimes="0;1" dur="3.0303030303030303s" begin="-1.4848484848484849s" repeatCount="indefinite"/></circle><circle cx="45" cy="0" r="2" fill="#b3e46e" transform="translate(0 33.756)"><animateTransform attributeName="transform" type="translate" values="0 134;0 -34" keyTimes="0;1" dur="3.0303030303030303s" begin="-2.9696969696969697s" repeatCount="indefinite"/></circle><circle cx="72" cy="0" r="3" fill="#b3e46e" transform="translate(0 12.13)"><animateTransform attributeName="transform" type="translate" values="0 130;0 -30" keyTimes="0;1" dur="3.0303030303030303s" begin="-0.36363636363636365s" repeatCount="indefinite"/></circle><circle cx="42" cy="0" r="3" fill="#b3e46e" transform="translate(0 -22.457)"><animateTransform attributeName="transform" type="translate" values="0 126;0 -26" keyTimes="0;1" dur="3.0303030303030303s" begin="-1.0909090909090908s" repeatCount="indefinite"/></circle><circle cx="13" cy="0" r="2" fill="#b3e46e" transform="translate(0 -27.724)"><animateTransform attributeName="transform" type="translate" values="0 137;0 -37" keyTimes="0;1" dur="3.0303030303030303s" begin="-1s" repeatCount="indefinite"/></circle><circle cx="26" cy="0" r="3" fill="#b3e46e" transform="translate(0 97.997)"><animateTransform attributeName="transform" type="translate" values="0 122;0 -22" keyTimes="0;1" dur="3.0303030303030303s" begin="-1.6666666666666667s" repeatCount="indefinite"/></circle><circle cx="84" cy="0" r="3" fill="#b3e46e" transform="translate(0 -.357)"><animateTransform attributeName="transform" type="translate" values="0 141;0 -41" keyTimes="0;1" dur="3.0303030303030303s" begin="-0.48484848484848486s" repeatCount="indefinite"/></circle><circle cx="98" cy="0" r="2" fill="#b3e46e" transform="translate(0 -2.403)"><animateTransform attributeName="transform" type="translate" values="0 110;0 -10" keyTimes="0;1" dur="3.0303030303030303s" begin="-0.9696969696969697s" repeatCount="indefinite"/></circle><circle cx="54" cy="0" r="3" fill="#b3e46e" transform="translate(0 49.037)"><animateTransform attributeName="transform" type="translate" values="0 122;0 -22" keyTimes="0;1" dur="3.0303030303030303s" begin="-2.696969696969697s" repeatCount="indefinite"/></circle><circle cx="10" cy="0" r="3" fill="#b3e46e" transform="translate(0 95.896)"><animateTransform attributeName="transform" type="translate" values="0 131;0 -31" keyTimes="0;1" dur="3.0303030303030303s" begin="-1.8181818181818181s" repeatCount="indefinite"/></circle><circle cx="37" cy="0" r="3" fill="#b3e46e" transform="translate(0 108.196)"><animateTransform attributeName="transform" type="translate" values="0 140;0 -40" keyTimes="0;1" dur="3.0303030303030303s" begin="-1.696969696969697s" repeatCount="indefinite"/></circle><circle cx="75" cy="0" r="2" fill="#b3e46e" transform="translate(0 80.543)"><animateTransform attributeName="transform" type="translate" values="0 129;0 -29" keyTimes="0;1" dur="3.0303030303030303s" begin="-2.090909090909091s" repeatCount="indefinite"/></circle><circle cx="62" cy="0" r="3" fill="#b3e46e" transform="translate(0 76.397)"><animateTransform attributeName="transform" type="translate" values="0 122;0 -22" keyTimes="0;1" dur="3.0303030303030303s" begin="-2.121212121212121s" repeatCount="indefinite"/></circle><circle cx="66" cy="0" r="2" fill="#b3e46e" transform="translate(0 3.597)"><animateTransform attributeName="transform" type="translate" values="0 110;0 -10" keyTimes="0;1" dur="3.0303030303030303s" begin="-0.8181818181818182s" repeatCount="indefinite"/></circle><circle cx="23" cy="0" r="3" fill="#b3e46e" transform="translate(0 79.696)"><animateTransform attributeName="transform" type="translate" values="0 131;0 -31" keyTimes="0;1" dur="3.0303030303030303s" begin="-2.121212121212121s" repeatCount="indefinite"/></circle><circle cx="1" cy="0" r="2" fill="#b3e46e" transform="translate(0 95.91)"><animateTransform attributeName="transform" type="translate" values="0 121;0 -21" keyTimes="0;1" dur="3.0303030303030303s" begin="-1.696969696969697s" repeatCount="indefinite"/></circle><circle cx="29" cy="0" r="2" fill="#b3e46e" transform="translate(0 15.09)"><animateTransform attributeName="transform" type="translate" values="0 118;0 -18" keyTimes="0;1" dur="3.0303030303030303s" begin="-0.42424242424242425s" repeatCount="indefinite"/></circle><circle cx="88" cy="0" r="3" fill="#b3e46e" transform="translate(0 27.437)"><animateTransform attributeName="transform" type="translate" values="0 122;0 -22" keyTimes="0;1" dur="3.0303030303030303s" begin="-0.12121212121212122s" repeatCount="indefinite"/></circle><circle cx="83" cy="0" r="3" fill="#b3e46e" transform="translate(0 17.497)"><animateTransform attributeName="transform" type="translate" values="0 125;0 -25" keyTimes="0;1" dur="3.0303030303030303s" begin="-0.30303030303030304s" repeatCount="indefinite"/></circle><circle cx="99" cy="0" r="2" fill="#b3e46e" transform="translate(0 11.556)"><animateTransform attributeName="transform" type="translate" values="0 143;0 -43" keyTimes="0;1" dur="3.0303030303030303s" begin="-0.2727272727272727s" repeatCount="indefinite"/></circle><circle cx="10" cy="0" r="2" fill="#b3e46e" transform="translate(0 -26.845)"><animateTransform attributeName="transform" type="translate" values="0 152;0 -52" keyTimes="0;1" dur="3.0303030303030303s" begin="-0.7878787878787878s" repeatCount="indefinite"/></circle><circle cx="38" cy="0" r="2" fill="#b3e46e" transform="translate(0 -28.55)"><animateTransform attributeName="transform" type="translate" values="0 136;0 -36" keyTimes="0;1" dur="3.0303030303030303s" begin="-1.0303030303030303s" repeatCount="indefinite"/></circle><circle cx="89" cy="0" r="3" fill="#b3e46e" transform="translate(0 26.477)"><animateTransform attributeName="transform" type="translate" values="0 113;0 -13" keyTimes="0;1" dur="3.0303030303030303s" begin="-0.21212121212121213s" repeatCount="indefinite"/></circle><circle cx="64" cy="0" r="2" fill="#b3e46e" transform="translate(0 2.85)"><animateTransform attributeName="transform" type="translate" values="0 118;0 -18" keyTimes="0;1" dur="3.0303030303030303s" begin="-0.696969696969697s" repeatCount="indefinite"/></circle><circle cx="36" cy="0" r="3" fill="#b3e46e" transform="translate(0 -20.744)"><animateTransform attributeName="transform" type="translate" values="0 131;0 -31" keyTimes="0;1" dur="3.0303030303030303s" begin="-0.9696969696969697s" repeatCount="indefinite"/></circle><circle cx="61" cy="0" r="2" fill="#b3e46e" transform="translate(0 104.516)"><animateTransform attributeName="transform" type="translate" values="0 137;0 -37" keyTimes="0;1" dur="3.0303030303030303s" begin="-1.7272727272727273s" repeatCount="indefinite"/></circle><circle cx="82" cy="0" r="3" fill="#b3e46e" transform="translate(0 84.13)"><animateTransform attributeName="transform" type="translate" values="0 130;0 -30" keyTimes="0;1" dur="3.0303030303030303s" begin="-2.0303030303030303s" repeatCount="indefinite"/></circle><circle cx="61" cy="0" r="2" fill="#b3e46e" transform="translate(0 9.696)"><animateTransform attributeName="transform" type="translate" values="0 143;0 -43" keyTimes="0;1" dur="3.0303030303030303s" begin="-0.30303030303030304s" repeatCount="indefinite"/></circle><circle cx="6" cy="0" r="2" fill="#b3e46e" transform="translate(0 104.084)"><animateTransform attributeName="transform" type="translate" values="0 111;0 -11" keyTimes="0;1" dur="3.0303030303030303s" begin="-1.3333333333333333s" repeatCount="indefinite"/></circle><circle cx="7" cy="0" r="2" fill="#b3e46e" transform="translate(0 -44.37)"><animateTransform attributeName="transform" type="translate" values="0 145;0 -45" keyTimes="0;1" dur="3.0303030303030303s" begin="-1.1515151515151516s" repeatCount="indefinite"/></circle><circle cx="21" cy="0" r="2" fill="#b3e46e" transform="translate(0 18.797)"><animateTransform attributeName="transform" type="translate" values="0 122;0 -22" keyTimes="0;1" dur="3.0303030303030303s" begin="-0.30303030303030304s" repeatCount="indefinite"/></circle><circle cx="16" cy="0" r="3" fill="#b3e46e" transform="translate(0 39.077)"><animateTransform attributeName="transform" type="translate" values="0 113;0 -13" keyTimes="0;1" dur="3.0303030303030303s" begin="-2.9393939393939394s" repeatCount="indefinite"/></circle><circle cx="93" cy="0" r="2" fill="#b3e46e" transform="translate(0 18.457)"><animateTransform attributeName="transform" type="translate" values="0 107;0 -7" keyTimes="0;1" dur="3.0303030303030303s" begin="-0.48484848484848486s" repeatCount="indefinite"/></circle><circle cx="38" cy="0" r="3" fill="#b3e46e" transform="translate(0 46.629)"><animateTransform attributeName="transform" type="translate" values="0 151;0 -51" keyTimes="0;1" dur="3.0303030303030303s" begin="-2.727272727272727s" repeatCount="indefinite"/></circle><circle cx="52" cy="0" r="2" fill="#b3e46e" transform="translate(0 28.062)"><animateTransform attributeName="transform" type="translate" values="0 144;0 -44" keyTimes="0;1" dur="3.0303030303030303s" begin="-3.0303030303030303s" repeatCount="indefinite"/></circle><circle cx="85" cy="0" r="3" fill="#b3e46e" transform="translate(0 -18.057)"><animateTransform attributeName="transform" type="translate" values="0 138;0 -38" keyTimes="0;1" dur="3.0303030303030303s" begin="-0.8181818181818182s" repeatCount="indefinite"/></circle><circle cx="37" cy="0" r="2" fill="#b3e46e" transform="translate(0 61.016)"><animateTransform attributeName="transform" type="translate" values="0 137;0 -37" keyTimes="0;1" dur="3.0303030303030303s" begin="-2.484848484848485s" repeatCount="indefinite"/></circle><circle cx="64" cy="0" r="2" fill="#b3e46e" transform="translate(0 -7.176)"><animateTransform attributeName="transform" type="translate" values="0 114;0 -14" keyTimes="0;1" dur="3.0303030303030303s" begin="-1s" repeatCount="indefinite"/></circle><circle cx="87" cy="0" r="3" fill="#b3e46e" transform="translate(0 3.997)"><animateTransform attributeName="transform" type="translate" values="0 125;0 -25" keyTimes="0;1" dur="3.0303030303030303s" begin="-0.5757575757575758s" repeatCount="indefinite"/></circle><circle cx="1" cy="0" r="2" fill="#b3e46e" transform="translate(0 51.411)"><animateTransform attributeName="transform" type="translate" values="0 103;0 -3" keyTimes="0;1" dur="3.0303030303030303s" begin="-2.6363636363636362s" repeatCount="indefinite"/></circle><circle cx="32" cy="0" r="2" fill="#b3e46e" transform="translate(0 55.284)"><animateTransform attributeName="transform" type="translate" values="0 111;0 -11" keyTimes="0;1" dur="3.0303030303030303s" begin="-2.5454545454545454s" repeatCount="indefinite"/></circle><circle cx="87" cy="0" r="3" fill="#b3e46e" transform="translate(0 117.129)"><animateTransform attributeName="transform" type="translate" values="0 145;0 -45" keyTimes="0;1" dur="3.0303030303030303s" begin="-1.606060606060606s" repeatCount="indefinite"/></circle><circle cx="89" cy="0" r="3" fill="#b3e46e" transform="translate(0 55.97)"><animateTransform attributeName="transform" type="translate" values="0 106;0 -6" keyTimes="0;1" dur="3.0303030303030303s" begin="-2.515151515151515s" repeatCount="indefinite"/></circle><circle cx="28" cy="0" r="3" fill="#b3e46e" transform="translate(0 61.143)"><animateTransform attributeName="transform" type="translate" values="0 138;0 -38" keyTimes="0;1" dur="3.0303030303030303s" begin="-2.484848484848485s" repeatCount="indefinite"/></circle><circle cx="79" cy="0" r="3" fill="#b3e46e" transform="translate(0 127.089)"><animateTransform attributeName="transform" type="translate" values="0 148;0 -48" keyTimes="0;1" dur="3.0303030303030303s" begin="-1.4848484848484849s" repeatCount="indefinite"/></circle><circle cx="20" cy="0" r="2" fill="#b3e46e" transform="translate(0 127.889)"><animateTransform attributeName="transform" type="translate" values="0 142;0 -42" keyTimes="0;1" dur="3.0303030303030303s" begin="-1.393939393939394s" repeatCount="indefinite"/></circle><circle cx="63" cy="0" r="3" fill="#b3e46e" transform="translate(0 30.884)"><animateTransform attributeName="transform" type="translate" values="0 111;0 -11" keyTimes="0;1" dur="3.0303030303030303s" begin="-0.12121212121212122s" repeatCount="indefinite"/></circle><circle cx="73" cy="0" r="2" fill="#b3e46e" transform="translate(0 111.97)"><animateTransform attributeName="transform" type="translate" values="0 133;0 -33" keyTimes="0;1" dur="3.0303030303030303s" begin="-1.5454545454545454s" repeatCount="indefinite"/></circle><circle cx="3" cy="0" r="3" fill="#b3e46e" transform="translate(0 93.264)"><animateTransform attributeName="transform" type="translate" values="0 105;0 -5" keyTimes="0;1" dur="3.0303030303030303s" begin="-1.4848484848484849s" repeatCount="indefinite"/></circle><circle cx="24" cy="0" r="3" fill="#b3e46e" transform="translate(0 119.756)"><animateTransform attributeName="transform" type="translate" values="0 146;0 -46" keyTimes="0;1" dur="3.0303030303030303s" begin="-1.5757575757575757s" repeatCount="indefinite"/></circle></pattern></defs><path fill="url(#ldio-4whrb9dk3pt-pattern)" clip-path="url(#ldio-4whrb9dk3pt-cp)" d="M59 37.3V18.9c3-.8 5.1-3.6 5.1-6.8 0-3.9-3.1-7.1-7-7.1H42.9c-3.9 0-7.1 3.2-7.1 7.1 0 3.2 2.2 6 5.1 6.8v18.4c-11.9 3.8-20.6 15-20.6 28.2C20.4 81.8 33.7 95 50 95s29.6-13.2 29.6-29.6c0-13.2-8.7-24.3-20.6-28.1z"/><path fill="none" stroke="#346b21" stroke-width="5" d="M59 37.3V18.9c3-.8 5.1-3.6 5.1-6.8 0-3.9-3.1-7.1-7-7.1H42.9c-3.9 0-7.1 3.2-7.1 7.1 0 3.2 2.2 6 5.1 6.8v18.4c-11.9 3.8-20.6 15-20.6 28.2C20.4 81.8 33.7 95 50 95s29.6-13.2 29.6-29.6c0-13.2-8.7-24.3-20.6-28.1z"/></svg>